<svg width="172" height="49" viewBox="0 0 172 49" fill="none" xmlns="http://www.w3.org/2000/svg">
<path d="M15.44 11C17.92 11 20.0667 11.4133 21.88 12.24C23.72 13.0667 25.1333 14.24 26.12 15.76C27.1067 17.28 27.6 19.08 27.6 21.16C27.6 23.2133 27.1067 25.0133 26.12 26.56C25.1333 28.08 23.72 29.2533 21.88 30.08C20.0667 30.88 17.92 31.28 15.44 31.28H9.8V39H3.32V11H15.44ZM15.08 26C17.0267 26 18.5067 25.5867 19.52 24.76C20.5333 23.9067 21.04 22.7067 21.04 21.16C21.04 19.5867 20.5333 18.3867 19.52 17.56C18.5067 16.7067 17.0267 16.28 15.08 16.28H9.8V26H15.08ZM29.4263 11H35.9063V33.72H49.9463V39H29.4263V11ZM69.4413 33H56.4413L53.9613 39H47.3213L59.8013 11H66.2013L78.7213 39H71.9213L69.4413 33ZM67.4013 28.08L62.9613 17.36L58.5213 28.08H67.4013ZM90.5475 29.08V39H84.0675V29L73.2275 11H80.1075L87.5875 23.44L95.0675 11H101.428L90.5475 29.08ZM122.745 33.8V39H101.065V11H122.225V16.2H107.505V22.28H120.505V27.32H107.505V33.8H122.745ZM142.941 39L137.541 31.2H137.221H131.581V39H125.101V11H137.221C139.701 11 141.848 11.4133 143.661 12.24C145.501 13.0667 146.915 14.24 147.901 15.76C148.888 17.28 149.381 19.08 149.381 21.16C149.381 23.24 148.875 25.04 147.861 26.56C146.875 28.0533 145.461 29.2 143.621 30L149.901 39H142.941ZM142.821 21.16C142.821 19.5867 142.315 18.3867 141.301 17.56C140.288 16.7067 138.808 16.28 136.861 16.28H131.581V26.04H136.861C138.808 26.04 140.288 25.6133 141.301 24.76C142.315 23.9067 142.821 22.7067 142.821 21.16Z" fill="white"/>
<path fill-rule="evenodd" clip-rule="evenodd" d="M135.953 23.0033C134.585 21.6381 134.585 19.4247 135.953 18.0596L149.549 4.49646C149.715 4.33128 149.893 4.18609 150.08 4.06088C150.648 3.67922 151.334 3.45955 152.069 3.46735C153.382 3.48128 154.517 4.2164 155.103 5.29233C155.425 5.87981 155.565 6.54 155.524 7.19085L155.272 27.9801L163.825 19.1636C165.171 17.7762 167.389 17.7399 168.78 19.0824C170.171 20.4249 170.207 22.638 168.861 24.0254L154.183 39.155C153.918 39.4278 153.62 39.6484 153.301 39.8165C152.8 40.0823 152.229 40.2303 151.622 40.2239C150.377 40.2107 149.292 39.5488 148.683 38.5626C148.296 37.9385 148.123 37.218 148.167 36.5076L148.423 15.5078L140.909 23.0033C139.54 24.3685 137.322 24.3685 135.953 23.0033Z" fill="#E2813A"/>
<path d="M135.953 18.0596L135.459 17.564L135.953 18.0596ZM135.953 23.0033L135.459 23.4989L135.953 23.0033ZM149.549 4.49646L150.043 4.99203L149.549 4.49646ZM150.08 4.06088L150.469 4.64299L150.47 4.64193L150.08 4.06088ZM152.069 3.46735L152.076 2.76739L152.076 2.76739L152.069 3.46735ZM155.103 5.29233L154.488 5.62707L154.489 5.62874L155.103 5.29233ZM155.524 7.19085L154.825 7.14646L154.824 7.16438L154.824 7.18234L155.524 7.19085ZM155.272 27.9801L154.572 27.9716L154.55 29.7289L155.774 28.4675L155.272 27.9801ZM163.825 19.1636L163.322 18.6762L163.322 18.6762L163.825 19.1636ZM168.78 19.0824L168.294 19.586L168.78 19.0824ZM168.861 24.0254L168.358 23.538L168.358 23.538L168.861 24.0254ZM154.183 39.155L154.686 39.6424L154.686 39.6424L154.183 39.155ZM153.301 39.8165L152.975 39.1972L152.972 39.1983L153.301 39.8165ZM151.622 40.2239L151.615 40.9238L151.615 40.9238L151.622 40.2239ZM148.683 38.5626L149.279 38.1951L149.278 38.1935L148.683 38.5626ZM148.167 36.5076L148.866 36.5508L148.867 36.5334L148.867 36.5161L148.167 36.5076ZM148.423 15.5078L149.122 15.5163L149.143 13.8L147.928 15.0122L148.423 15.5078ZM140.909 23.0033L141.403 23.4989L140.909 23.0033ZM135.459 17.564C133.816 19.2027 133.816 21.8602 135.459 23.4989L136.448 22.5077C135.353 21.4161 135.353 19.6468 136.448 18.5551L135.459 17.564ZM149.055 4.00089L135.459 17.564L136.448 18.5551L150.043 4.99203L149.055 4.00089ZM149.691 3.47878C149.466 3.62917 149.253 3.80331 149.055 4.00089L150.043 4.99203C150.177 4.85926 150.319 4.74301 150.469 4.64298L149.691 3.47878ZM152.076 2.76739C151.195 2.75804 150.371 3.02181 149.69 3.47984L150.47 4.64193C150.925 4.33663 151.472 4.16106 152.062 4.16731L152.076 2.76739ZM155.718 4.95759C155.016 3.66773 153.653 2.78411 152.076 2.76739L152.062 4.16731C153.111 4.17844 154.019 4.76507 154.488 5.62707L155.718 4.95759ZM156.223 7.23524C156.272 6.45494 156.104 5.6623 155.717 4.95591L154.489 5.62874C154.746 6.09732 154.859 6.62506 154.825 7.14646L156.223 7.23524ZM155.971 27.9886L156.224 7.19935L154.824 7.18234L154.572 27.9716L155.971 27.9886ZM155.774 28.4675L164.327 19.651L163.322 18.6762L154.769 27.4927L155.774 28.4675ZM164.327 19.651C165.404 18.5406 167.181 18.5115 168.294 19.586L169.266 18.5788C167.598 16.9682 164.937 17.0118 163.322 18.6762L164.327 19.651ZM168.294 19.586C169.406 20.6596 169.435 22.4285 168.358 23.538L169.363 24.5128C170.979 22.8474 170.935 20.1903 169.266 18.5788L168.294 19.586ZM168.358 23.538L153.681 38.6676L154.686 39.6424L169.363 24.5128L168.358 23.538ZM153.681 38.6676C153.468 38.8867 153.229 39.063 152.975 39.1972L153.627 40.4359C154.011 40.2338 154.369 39.9689 154.686 39.6424L153.681 38.6676ZM151.615 40.9238C152.341 40.9315 153.028 40.754 153.629 40.4347L152.972 39.1983C152.573 39.4106 152.116 39.5291 151.63 39.5239L151.615 40.9238ZM148.088 38.9302C148.817 40.1123 150.12 40.908 151.615 40.9238L151.63 39.5239C150.635 39.5134 149.767 38.9853 149.279 38.1951L148.088 38.9302ZM149.278 38.1935C148.969 37.6958 148.831 37.1199 148.866 36.5508L147.469 36.4644C147.416 37.316 147.623 38.1813 148.089 38.9318L149.278 38.1935ZM147.723 15.4993L147.467 36.4991L148.867 36.5161L149.122 15.5163L147.723 15.4993ZM141.403 23.4989L148.917 16.0034L147.928 15.0122L140.414 22.5077L141.403 23.4989ZM135.459 23.4989C137.1 25.1366 139.762 25.1366 141.403 23.4989L140.414 22.5077C139.319 23.6004 137.543 23.6004 136.448 22.5077L135.459 23.4989Z" fill="#242323"/>
</svg>
